<svg xmlns="http://www.w3.org/2000/svg" viewBox="0 0 400 300" width="406" height="306" class="illustration styles_illustrationTablet__1DWOa"><g id="_532_sending_emails_outline" data-name="#532_sending_emails_outline"><path d="M303.55,97.55V212a5.39,5.39,0,0,1-5.39,5.39H100A5.39,5.39,0,0,1,94.63,212V97.55Z" fill="#fff"></path><path d="M298.16,218.41H100A6.39,6.39,0,0,1,93.63,212V97.55a1,1,0,0,1,1-1H303.55a1,1,0,0,1,1,1V212A6.4,6.4,0,0,1,298.16,218.41ZM95.63,98.55V212a4.4,4.4,0,0,0,4.39,4.39H298.16a4.4,4.4,0,0,0,4.39-4.39V98.55Z" fill="#093f68"></path><path d="M100,82.28H298.16a5.39,5.39,0,0,1,5.39,5.39v9.89a0,0,0,0,1,0,0H94.63a0,0,0,0,1,0,0V87.67A5.39,5.39,0,0,1,100,82.28Z" fill="#f76e6e"></path><path d="M303.55,98.55H94.63a1,1,0,0,1-1-1V87.67A6.4,6.4,0,0,1,100,81.28H298.16a6.4,6.4,0,0,1,6.39,6.39v9.88A1,1,0,0,1,303.55,98.55Zm-207.92-2H302.55V87.67a4.4,4.4,0,0,0-4.39-4.39H100a4.4,4.4,0,0,0-4.39,4.39Z" fill="#093f68"></path><circle cx="106.08" cy="89.16" r="2.35" fill="#f56132"></circle><path d="M106.08,86.82a2.35,2.35,0,1,1-2.34,2.34,2.35,2.35,0,0,1,2.34-2.34m0-2a4.35,4.35,0,1,0,4.35,4.34,4.35,4.35,0,0,0-4.35-4.34Z" fill="#093f68"></path><circle cx="116.88" cy="89.16" r="2.35" fill="#ffbc0e"></circle><path d="M116.88,86.82a2.35,2.35,0,1,1-2.35,2.34,2.34,2.34,0,0,1,2.35-2.34m0-2a4.35,4.35,0,1,0,4.34,4.34,4.35,4.35,0,0,0-4.34-4.34Z" fill="#093f68"></path><circle cx="127.67" cy="89.16" r="2.35" fill="#70cc40"></circle><path d="M127.67,86.82a2.35,2.35,0,1,1-2.35,2.34,2.35,2.35,0,0,1,2.35-2.34m0-2A4.35,4.35,0,1,0,132,89.16a4.35,4.35,0,0,0-4.35-4.34Z" fill="#093f68"></path><rect x="200.79" y="107.85" width="112.58" height="66.63" fill="#f76e6e"></rect><path d="M313.37,175.48H200.79a1,1,0,0,1-1-1V107.85a1,1,0,0,1,1-1H313.37a1,1,0,0,1,1,1v66.63A1,1,0,0,1,313.37,175.48Zm-111.58-2H312.37V108.85H201.79Z" fill="#093f68"></path><polygon points="257.08 134.04 200.79 174.48 313.37 174.48 257.08 134.04" fill="#f76e6e"></polygon><path d="M313.37,175.48H200.79a1,1,0,0,1-.58-1.81l56.29-40.44a1,1,0,0,1,1.16,0L314,173.67a1,1,0,0,1-.59,1.81Zm-109.47-2H310.27l-53.19-38.21Z" fill="#093f68"></path><polygon points="257.08 148.29 200.79 107.85 313.37 107.85 257.08 148.29" fill="#f76e6e"></polygon><path d="M257.08,149.29a1,1,0,0,1-.58-.19l-56.29-40.44a1,1,0,0,1-.37-1.11,1,1,0,0,1,.95-.7H313.37a1,1,0,0,1,.95.7,1,1,0,0,1-.36,1.11l-56.3,40.44A.94.94,0,0,1,257.08,149.29ZM203.9,108.85l53.18,38.21,53.19-38.21Z" fill="#093f68"></path><path d="M260.47,131.76c0,.19-.08.41-.12.67a4.24,4.24,0,0,0-.06.66.77.77,0,0,0,.11.4.5.5,0,0,0,.44.17,1.32,1.32,0,0,0,.63-.17,1.63,1.63,0,0,0,.56-.55,3.28,3.28,0,0,0,.39-.94,5.26,5.26,0,0,0,.16-1.35,5.39,5.39,0,0,0-.4-2.13,4.31,4.31,0,0,0-1.09-1.55,4.62,4.62,0,0,0-1.67-.94,6.79,6.79,0,0,0-2.12-.31,5.83,5.83,0,0,0-2.28.43,5.16,5.16,0,0,0-1.77,1.19,5.36,5.36,0,0,0-1.14,1.81,6.34,6.34,0,0,0-.4,2.29,6.16,6.16,0,0,0,.44,2.38,5,5,0,0,0,1.25,1.78,5.63,5.63,0,0,0,1.88,1.12,7,7,0,0,0,2.37.39,6.76,6.76,0,0,0,2.11-.32,5.66,5.66,0,0,0,1.7-.91h2.23a7.17,7.17,0,0,1-2.72,2.27,8,8,0,0,1-3.48.78,8.25,8.25,0,0,1-3-.56,7.78,7.78,0,0,1-2.5-1.54,7.18,7.18,0,0,1-2.3-5.39,7.2,7.2,0,0,1,.61-3,7.41,7.41,0,0,1,1.65-2.39,7.69,7.69,0,0,1,2.46-1.58,7.85,7.85,0,0,1,3-.58,8.14,8.14,0,0,1,2.62.44,7,7,0,0,1,2.29,1.28,6.21,6.21,0,0,1,2.24,4.93,6.11,6.11,0,0,1-.25,1.86,4.84,4.84,0,0,1-.64,1.33,4,4,0,0,1-.89.89,4.29,4.29,0,0,1-1,.52,5.43,5.43,0,0,1-.95.26,6.45,6.45,0,0,1-.76.07,1.71,1.71,0,0,1-1.21-.35,1.15,1.15,0,0,1-.39-.75h0a4.57,4.57,0,0,1-1,.75,3.12,3.12,0,0,1-1.57.35,2.69,2.69,0,0,1-1.18-.26,2.62,2.62,0,0,1-.92-.69,3.19,3.19,0,0,1-.6-1.07,4.34,4.34,0,0,1-.21-1.38,5.36,5.36,0,0,1,.28-1.7,4.92,4.92,0,0,1,.8-1.46,3.88,3.88,0,0,1,1.26-1,3.76,3.76,0,0,1,1.7-.37,3.07,3.07,0,0,1,1.34.26,1.83,1.83,0,0,1,.84.89h0l.16-.91h1.9Zm-1.87-.55a2.32,2.32,0,0,0-.37-1.33,1.27,1.27,0,0,0-1.13-.52,1.74,1.74,0,0,0-1.47.72,2.86,2.86,0,0,0-.55,1.78,3.57,3.57,0,0,0,.06.65,1.77,1.77,0,0,0,.21.57,1.33,1.33,0,0,0,.43.42,1.42,1.42,0,0,0,.7.16,2.32,2.32,0,0,0,1-.22,1.83,1.83,0,0,0,.65-.58,2.43,2.43,0,0,0,.34-.79A4.19,4.19,0,0,0,258.6,131.21Z" fill="#fff"></path><path d="M190.63,124.9H145.18a1,1,0,0,1,0-2h45.45a1,1,0,0,1,0,2Z" fill="#093f68"></path><path d="M181.17,139.93H116.88a1,1,0,0,1,0-2h64.29a1,1,0,1,1,0,2Z" fill="#093f68"></path><path d="M209.36,155.26H138.8a1,1,0,0,1,0-2h70.56a1,1,0,0,1,0,2Z" fill="#093f68"></path><rect x="124.85" y="183.29" width="148.47" height="20.27" rx="10.14" fill="#ffbc0e"></rect><path d="M263.19,204.57H135a11.14,11.14,0,0,1,0-22.28h128.2a11.14,11.14,0,0,1,0,22.28ZM135,184.29a9.14,9.14,0,0,0,0,18.28h128.2a9.14,9.14,0,0,0,0-18.28Z" fill="#093f68"></path><path d="M187.82,191a1.29,1.29,0,0,0-.64-.51,2.21,2.21,0,0,0-1.36-.11,1.35,1.35,0,0,0-.44.2,1,1,0,0,0-.32.34,1,1,0,0,0-.12.5.8.8,0,0,0,.3.66,3,3,0,0,0,.74.39c.3.11.62.22,1,.33a3.68,3.68,0,0,1,1,.43,2.45,2.45,0,0,1,.74.73,2.17,2.17,0,0,1,.3,1.21,2.65,2.65,0,0,1-.25,1.2,2.34,2.34,0,0,1-.68.84,2.9,2.9,0,0,1-1,.51,4.17,4.17,0,0,1-1.19.16,4.38,4.38,0,0,1-1.52-.26,2.92,2.92,0,0,1-1.26-.89l1.14-1.1a1.83,1.83,0,0,0,.73.65,2,2,0,0,0,1,.24,2,2,0,0,0,.53-.08,1.71,1.71,0,0,0,.48-.21,1.24,1.24,0,0,0,.35-.37,1.07,1.07,0,0,0,.13-.51.89.89,0,0,0-.3-.72,2.45,2.45,0,0,0-.75-.42,9.14,9.14,0,0,0-1-.33,4.47,4.47,0,0,1-1-.43,2.31,2.31,0,0,1-.74-.72,2.15,2.15,0,0,1-.3-1.21,2.29,2.29,0,0,1,.27-1.14,2.42,2.42,0,0,1,.7-.79,3.14,3.14,0,0,1,1-.48,4.43,4.43,0,0,1,1.15-.15,4.06,4.06,0,0,1,1.3.2,3,3,0,0,1,1.13.67Z" fill="#093f68"></path><path d="M190.54,189.18h5.63v1.37h-4.11v2.09H196V194h-3.9v2.3h4.33v1.37h-5.85Z" fill="#093f68"></path><path d="M197.88,189.18h2l4.12,6.31h0v-6.31h1.51v8.5h-1.92l-4.2-6.52h0v6.52h-1.51Z" fill="#093f68"></path><path d="M207.43,189.18h3.35a5.18,5.18,0,0,1,1.62.26,3.85,3.85,0,0,1,2.34,2.11,4.54,4.54,0,0,1,.36,1.88,4,4,0,0,1-1.49,3.21,4.43,4.43,0,0,1-1.45.78,5.1,5.1,0,0,1-1.56.26h-3.17Zm2.64,7.13a5.29,5.29,0,0,0,1.34-.16,3.13,3.13,0,0,0,1.09-.51,2.27,2.27,0,0,0,.74-.88,3,3,0,0,0,.27-1.33,3.31,3.31,0,0,0-.24-1.32,2.24,2.24,0,0,0-.66-.89,2.83,2.83,0,0,0-1-.51,4.72,4.72,0,0,0-1.28-.16h-1.38v5.76Z" fill="#093f68"></path><polygon points="264.99 194.52 245.01 189.41 250.13 209.39 254.63 204.88 267.48 217.72 273.32 211.87 260.48 199.03 264.99 194.52" fill="#fff"></polygon><path d="M267.48,218.72a1,1,0,0,1-.71-.29l-12.14-12.14-3.8,3.8a1,1,0,0,1-1,.26,1,1,0,0,1-.7-.71l-5.11-20a1,1,0,0,1,1.21-1.22l20,5.11a1,1,0,0,1,.46,1.68l-3.8,3.8L274,211.17a1,1,0,0,1,.29.7,1,1,0,0,1-.29.71l-5.85,5.85A1,1,0,0,1,267.48,218.72Zm-12.85-14.84a1,1,0,0,1,.71.29l12.14,12.14,4.43-4.44-12.14-12.13a1,1,0,0,1-.29-.71,1.05,1.05,0,0,1,.29-.71l3.27-3.26L246.4,190.8l4.26,16.64,3.27-3.27A1,1,0,0,1,254.63,203.88Z" fill="#093f68"></path></g></svg>